<?xml version="1.0"?>
<svg width="1440" height="320" xmlns="http://www.w3.org/2000/svg" xmlns:svg="http://www.w3.org/2000/svg">
 <g class="layer">
  <title>Layer 1</title>
  <path d="m1,283l60,5.8c60,6.23 180,17.17 300,23.41c120,5.8 240,5.8 360,0c120,-6.23 240,-17.17 360,-17.5c120,0.33 240,11.27 300,17.5l60,5.8l0,-105l-60,0c-60,0 -180,0 -300,0c-120,0 -240,0 -360,0c-120,0 -240,0 -360,0c-120,0 -240,0 -300,0l-60,0l0,70z" fill="#000000" id="svg_1"/>
  <rect fill="#000000" height="213" id="svg_3" transform="matrix(1 0 0 1 0 0)" width="1438" x="1" y="0"/>
 </g>
</svg>